<svg width="28" height="29" viewBox="0 0 28 29" fill="none" xmlns="http://www.w3.org/2000/svg">
<path d="M0.22934 14.2359C0.11053 14.7807 0.217814 15.2715 0.556846 15.7335M0.22934 14.2359L17.6157 11.2572L16.1216 9.75576M0.22934 14.2359L0.320676 13.8169M0.22934 14.2359L0.320676 13.8169M0.556846 15.7335C0.99816 16.335 12.9551 28.1899 13.2971 28.3651C13.6601 28.551 14.253 28.5812 14.696 28.4363M0.556846 15.7335L0.959958 15.4377C0.959946 15.4377 0.959935 15.4377 0.959925 15.4377C0.959944 15.4377 0.959962 15.4377 0.959981 15.4378L0.556846 15.7335ZM14.696 28.4363C14.9342 28.3583 16.1092 27.2204 21.2821 22.0581C26.1088 17.2414 27.6133 15.6987 27.7282 15.4485C27.9361 14.9954 27.9299 14.3564 27.7134 13.9256M14.696 28.4363L14.5405 27.9611C14.5109 27.9708 14.4935 27.9808 14.4935 27.9808C14.4934 27.9808 14.4981 27.978 14.5081 27.9711M14.696 28.4363L14.5406 27.9611C14.5299 27.9645 14.5191 27.9679 14.5081 27.9711M27.7134 13.9256C27.4907 13.4827 15.1843 1.169 14.7817 0.986252M27.7134 13.9256L27.2666 14.1502C27.2666 14.1502 27.2666 14.1502 27.2666 14.1502L27.7134 13.9256ZM14.7817 0.986252C14.4327 0.82787 13.8405 0.782472 13.4637 0.885305M14.7817 0.986252L14.575 1.44155C14.575 1.44155 14.575 1.44155 14.575 1.44154L14.7817 0.986252ZM13.4637 0.885305C13.228 0.94963 12.9022 1.23383 11.7239 2.40307M13.4637 0.885305L13.5953 1.36766M13.4637 0.885305L13.5953 1.36766M11.7239 2.40307L10.6291 3.48959L10.9823 3.84348M11.7239 2.40307L12.0761 2.75797C12.6671 2.17156 13.0319 1.81958 13.276 1.60662C13.5228 1.39127 13.5926 1.36847 13.5953 1.36766M11.7239 2.40307L12.0761 2.75799L10.9823 3.84348M10.9823 3.84348L10.6274 4.19568L11.8549 5.42561L13.4357 7.00944M10.9823 3.84348L12.2088 5.0724L13.5993 6.46554M13.4357 7.00944L13.7875 6.93736C15.1245 6.66338 16.4855 8.04154 16.201 9.38148L16.1216 9.75576M13.4357 7.00944L13.3353 6.51962L13.5993 6.46554M13.4357 7.00944L13.74 6.70571L13.7896 6.65623L13.7145 6.58095L13.5993 6.46554M16.1216 9.75576L16.4455 9.43339L16.476 9.40307L16.5224 9.44971L16.6669 9.59488M16.1216 9.75576L16.6107 9.85958L16.6669 9.59488M19.3021 12.243L19.6206 12.2194C19.6206 12.2194 19.6206 12.2194 19.6206 12.2194C20.1873 12.1774 20.7131 12.2711 21.1688 12.5254C21.6256 12.7803 21.9756 13.1766 22.2226 13.6786C22.4104 14.0602 22.52 14.4363 22.5197 14.8332C22.5194 15.2299 22.4093 15.6063 22.2212 15.9885C21.2562 17.9495 18.5076 17.9615 17.5412 15.9977L17.5412 15.9977C17.4426 15.7972 17.3664 15.6201 17.3193 15.4304L19.3021 12.243ZM19.3021 12.243L17.9701 10.9045L16.6669 9.59488M19.3021 12.243L13.5953 1.36766M14.5081 27.9711C14.3594 28.0146 14.1764 28.0348 13.992 28.0254C13.8106 28.0162 13.6588 27.98 13.5565 27.935C13.5558 27.9344 13.5551 27.9338 13.5543 27.9331C13.5283 27.9111 13.49 27.8774 13.4385 27.8307C13.3361 27.7378 13.1931 27.6042 13.0137 27.434C12.6556 27.0941 12.1606 26.6161 11.5731 26.0439C10.3986 24.8999 8.85922 23.3839 7.31625 21.8541C5.77329 20.3243 4.2277 18.7816 3.04068 17.5843C2.44701 16.9855 1.94401 16.474 1.5762 16.094C1.39213 15.9039 1.24331 15.7481 1.13444 15.6315C1.07991 15.573 1.03689 15.526 1.00516 15.4902C0.976364 15.4578 0.963615 15.4422 0.960587 15.4385C0.959951 15.4377 0.959743 15.4374 0.959908 15.4377C0.70311 15.0876 0.630568 14.7427 0.71786 14.3424L0.717869 14.3424L0.778025 14.0664L5.01621 9.81884L9.00435 5.82189L10.2105 7.02734L10.2105 7.02734C10.7585 7.57494 11.1375 7.96538 11.3738 8.22597C11.4455 8.30504 11.5005 8.36828 11.5414 8.41763C11.5348 8.45554 11.5297 8.49183 11.5255 8.52484C11.5092 8.65172 11.4995 8.79442 11.4956 8.935C11.4885 9.1974 11.4998 9.52594 11.5591 9.74618C11.7119 10.3141 12.1564 10.9152 12.654 11.2377L12.926 10.8182L12.654 11.2377L12.7825 11.321V14.8335V18.3399L12.6565 18.4182C12.6565 18.4182 12.6565 18.4182 12.6565 18.4182C11.5606 19.0997 11.1763 20.5436 11.7318 21.7183L11.7318 21.7184C12.188 22.683 13.047 23.2272 14.1149 23.2297C14.3413 23.2302 14.537 23.2233 14.7394 23.1718C14.9401 23.1206 15.1186 23.0328 15.3235 22.9229L15.0874 22.4822L15.3235 22.9229C16.9987 22.0252 17.2242 19.8503 15.785 18.6104C15.785 18.6104 15.7849 18.6104 15.7849 18.6104L15.5948 18.4465L15.5947 14.9416V12.4142L16.1487 12.9678C16.826 13.6448 17.1555 13.9783 17.3125 14.166C17.317 14.1713 17.3211 14.1763 17.325 14.1811C17.3069 14.2626 17.2951 14.3469 17.2868 14.4172C17.2711 14.5515 17.2611 14.7052 17.2605 14.85L13.5954 1.36764L13.5953 1.36766C13.7121 1.3358 13.8934 1.32093 14.0949 1.33636C14.2748 1.35014 14.4319 1.38509 14.5381 1.42612C14.5649 1.44802 14.6043 1.48202 14.6577 1.52968C14.7647 1.62531 14.9137 1.76338 15.1003 1.93983C15.4727 2.29201 15.9849 2.78744 16.5912 3.38032C17.8032 4.56555 19.3847 6.13429 20.9613 7.71182C22.5379 9.28934 24.1082 10.8743 25.2978 12.0921C25.8928 12.7012 26.3911 13.2169 26.7469 13.5934C26.9251 13.782 27.0653 13.9332 27.1632 14.0427C27.2124 14.0977 27.2481 14.139 27.2715 14.1675C27.2747 14.1713 27.2774 14.1747 27.2798 14.1777C27.4102 14.4642 27.4161 14.9125 27.2815 15.2226M14.5081 27.9711C14.5148 27.9665 14.5239 27.96 14.5357 27.9513C14.5849 27.9144 14.6589 27.8536 14.7671 27.758C14.9825 27.5678 15.3064 27.2637 15.7907 26.7946C16.7576 25.8582 18.3418 24.286 20.9289 21.7042C23.3425 19.2956 24.923 17.708 25.9141 16.6918C26.4102 16.1832 26.7551 15.8212 26.9818 15.5726C27.0956 15.4479 27.1755 15.3561 27.2286 15.291C27.2612 15.2509 27.2764 15.2295 27.2815 15.2226M27.2815 15.2226C27.279 15.2284 27.2764 15.2342 27.2737 15.24C27.2795 15.2274 27.2837 15.2202 27.2835 15.22C27.2834 15.22 27.2828 15.2208 27.2815 15.2226ZM13.5993 6.46554L13.6871 6.44753C14.5565 6.26939 15.3951 6.63273 15.9581 7.20288C16.5212 7.77313 16.8745 8.61669 16.6901 9.48531L16.6669 9.59488M0.320676 13.8169L4.66227 9.46568L8.65069 5.46845L0.320676 13.8169ZM17.3702 14.0269C17.3702 14.027 17.3701 14.0272 17.3701 14.0274L17.3703 14.0266L17.3702 14.0269Z" fill="white" stroke="#1A2E35"/>
</svg>
