<svg width="428" height="2439" viewBox="0 0 428 2439" fill="none" xmlns="http://www.w3.org/2000/svg">
<path d="M427.999 1194.63C428.033 1253.75 426.999 1312.69 424.92 1370.17C424.226 1389.03 423.394 1407.83 422.441 1426.32C422.164 1431.62 421.886 1436.92 421.59 1442.16C421.295 1447.4 421.1 1450.79 420.851 1455.04L420.638 1458.55C420.37 1462.99 420.102 1467.43 419.815 1471.8L419.676 1473.96C419.399 1478.28 419.112 1482.59 418.825 1486.84L418.437 1492.45C418.178 1496.27 417.91 1500.03 417.632 1503.79C417.355 1507.55 417.05 1511.74 416.754 1515.69C416.643 1517.11 416.541 1518.53 416.43 1519.88L415.644 1530.05L415.006 1537.88C414.026 1549.96 412.999 1561.88 411.926 1573.63C411.492 1578.44 411.002 1583.24 410.595 1587.99C410.493 1589.16 410.382 1590.33 410.271 1591.5C409.753 1596.93 409.226 1602.35 408.69 1607.77C408.255 1612.15 407.82 1616.53 407.367 1620.9L406.193 1632.31L405.934 1634.71C405.527 1638.65 405.102 1642.6 404.685 1646.54C404.168 1651.41 403.64 1656.16 403.113 1660.97C403.002 1661.95 402.901 1662.94 402.79 1663.86C402.189 1669.35 401.569 1674.77 400.94 1680.13C400.57 1683.34 400.2 1686.61 399.821 1689.75C399.155 1695.91 398.471 1701.4 397.777 1707.19C397.084 1712.99 396.455 1718.23 395.78 1723.71L395.558 1725.5C394.892 1730.98 394.226 1736.41 393.542 1741.83C393.348 1743.5 393.135 1745.16 392.931 1746.76C392.312 1751.76 391.683 1756.75 391.082 1761.68C389.269 1775.98 387.441 1790.16 385.598 1804.21C381.849 1832.97 378.024 1861.51 374.121 1889.82C370.875 1913.24 367.583 1936.54 364.226 1959.41C348.116 2069.67 330.675 2172.55 311.708 2254.52C309.349 2264.69 306.973 2274.61 304.568 2284.05L301.933 2294.34L301.48 2296.06C300.555 2299.52 299.63 2302.91 298.705 2306.23C297.78 2309.56 296.856 2313.08 295.931 2316.34L294.655 2320.78C292.805 2327.19 290.956 2333.35 289.106 2339.27C288.098 2342.48 287.09 2345.43 286.073 2348.58C285.055 2351.72 284.223 2354.19 283.252 2356.9L282.096 2360.17C281.236 2362.63 280.367 2364.97 279.497 2367.32C277.82 2371.84 276.131 2376.13 274.43 2380.2L272.469 2384.88L271.359 2387.41L269.51 2391.41L267.919 2394.81H267.864C266.822 2396.98 265.777 2399.04 264.729 2400.97C263.073 2404.17 261.418 2407.13 259.753 2409.97C258.653 2411.82 257.552 2413.54 256.443 2415.21C255.333 2416.87 254.353 2418.29 253.298 2419.77L253.049 2420.08C251.957 2421.56 250.857 2422.97 249.756 2424.27L248.073 2426.18L246.372 2427.97C245.863 2428.52 245.345 2429.01 244.837 2429.44L242.987 2431.17C236.433 2436.7 229.83 2439.19 223.224 2438.63H222.041C216.056 2437.83 210.082 2434.85 204.146 2429.69L202.842 2428.52L200.595 2426.42L198.847 2424.58C196.378 2421.99 193.927 2419.03 191.449 2415.7C190.903 2415.02 190.367 2414.28 189.83 2413.48C188.184 2411.2 186.529 2408.73 184.892 2406.15C183.792 2404.42 182.7 2402.63 181.609 2400.78L179.972 2397.95L178.335 2395.05C176.162 2391.17 173.998 2386.98 171.862 2382.72C169.359 2377.67 166.868 2372.31 164.39 2366.64L161.689 2360.47C158.915 2353.88 156.141 2346.91 153.366 2339.7L151.859 2335.63L150.647 2332.12L149.833 2329.66C148.039 2324.23 146.088 2317.88 143.989 2310.73L142.916 2307.04C141.631 2302.54 140.29 2297.79 138.912 2292.74C136.017 2282.13 132.919 2270.42 129.664 2257.66C92.6726 2112.57 36.0203 1840.27 22.7219 1737.02C22.0468 1731.79 21.3902 1726.48 20.7337 1721.12C20.225 1716.93 19.7164 1712.68 19.2263 1708.36C18.7361 1704.05 18.3015 1700.6 17.8946 1696.59C17.4877 1692.59 17.127 1689.63 16.7571 1686.05C16.3872 1682.48 16.0542 1679.46 15.7121 1676.13C15.6907 1675.87 15.6659 1675.62 15.6381 1675.39C15.2219 1671.26 14.8058 1667.13 14.3989 1663.06C13.992 1658.99 13.6221 1655.05 13.2522 1650.73C13.0672 1648.82 12.8915 1646.85 12.7158 1644.88C12.3027 1640.32 11.8958 1635.76 11.4951 1631.2C11.0697 1626.14 10.6443 1621.09 10.2281 1615.97C9.50678 1607.03 8.81319 1598.04 8.16584 1588.91L7.66646 1581.83C6.35754 1563.17 5.20291 1544.06 4.20777 1524.57C3.8471 1517.79 3.52343 1510.94 3.209 1504.1C2.81134 1495.29 2.45068 1486.41 2.11775 1477.54C2.05302 1475.75 1.98829 1474.02 1.9328 1472.24C1.76634 1467.61 1.60912 1462.93 1.47041 1458.24C1.25771 1451.71 1.07275 1445.18 0.915536 1438.58C0.915536 1436.98 0.832305 1435.38 0.804562 1433.78C0.721331 1430.39 0.647349 1427 0.582614 1423.54C0.517879 1420.09 0.425401 1415.35 0.360666 1411.22C0.360666 1409.8 0.360666 1408.44 0.295931 1407.09C0.240444 1403.57 0.203452 1400.06 0.157213 1396.61C0.162182 1396.32 0.162182 1396.03 0.157213 1395.75C0.157213 1391.55 0.0739827 1387.43 0.055487 1383.42C0.0511341 1383.03 0.0511341 1382.64 0.055487 1382.25C0.055487 1377.89 0.0369914 1373.52 0 1369.12C0 1358.46 0 1347.85 0.101726 1337.25C0.101726 1333.06 0.184957 1328.87 0.240444 1324.93C0.351418 1316.67 0.499383 1308.41 0.68434 1300.27C0.776818 1296.08 0.878545 1291.89 0.998767 1287.94C1.22071 1279.73 1.4889 1271.41 1.80333 1262.98C2.61979 1241.4 3.6865 1220.28 4.99383 1199.8C5.95657 1184.14 7.05268 1168.85 8.27682 1154.01C8.36929 1152.78 8.48027 1151.48 8.59124 1150.25C13.5758 1091.76 20.3545 1039.86 28.0117 991.783L29.3249 983.586L30.4716 976.559C31.3964 971.197 32.238 965.958 33.135 960.657L33.3015 959.671C34.7318 951.453 36.1837 943.234 37.6572 935.016C39.9229 922.689 42.2256 909.992 44.5468 897.665L44.778 896.432C46.7663 885.954 48.7731 875.537 50.7706 865.183L53.7854 849.65C55.9217 838.679 58.0579 827.708 60.1572 816.737L62.5986 803.978C63.5234 799.294 64.3742 794.609 65.2527 789.925C73.1348 747.258 80.5118 700.605 87.3181 650.381C88.6066 641.012 89.8828 631.582 91.1467 622.09C91.7478 617.529 92.3489 613.029 92.9408 608.468C101.384 544.367 109.235 479.526 117.975 418.321C120.059 403.693 122.192 389.311 124.374 375.176C126.224 363.403 128.073 351.816 130.052 340.475C132.281 327.408 134.575 314.649 136.979 302.322C140.262 285.31 143.721 268.977 147.42 253.383C148.345 249.5 149.223 245.74 150.129 242.042C242.34 -140.102 310.21 -15.227 355.487 242.042C358.909 261.272 362.195 281.263 365.345 302.014C367.269 314.341 369.127 327.223 370.894 340.167C371.097 341.523 371.282 342.94 371.476 344.419C372.746 353.418 373.979 362.479 375.176 371.601L376.239 379.737C376.766 383.805 377.293 387.873 377.811 392.064C378.329 396.255 379.078 402.111 379.707 407.165L380.965 416.903C383.492 437.449 385.9 458.405 388.187 479.772C388.65 483.963 389.112 488.216 389.556 492.469C392.719 522.055 395.66 551.948 398.388 581.657L399.46 594.354C399.849 598.463 400.228 602.716 400.598 607.112L401.698 619.44C402.068 623.692 402.429 627.884 402.78 631.767L403.835 644.402C404.195 648.593 404.537 652.785 404.861 656.729L405.869 669.057C406.202 673.186 406.526 677.378 406.849 681.384L407.774 693.711L408.699 706.038C409.932 722.475 411.082 738.541 412.148 754.238C412.685 762.25 413.221 770.201 413.73 778.029C416.033 813.285 418.002 847 419.611 878.373C419.615 878.515 419.615 878.662 419.611 878.804C419.769 881.824 419.917 884.968 420.065 887.741C420.213 890.515 420.37 893.905 420.518 896.864C420.666 899.822 420.749 901.486 420.851 903.828C421.017 907.28 421.184 910.732 421.341 914.245C421.498 917.758 421.683 921.765 421.84 925.524C422.145 932.428 422.441 939.331 422.719 946.296C422.959 952.151 423.19 958.007 423.412 963.924C423.459 965.033 423.505 966.081 423.542 967.19C423.579 968.3 423.606 969.039 423.643 969.964C423.773 973.416 423.902 976.867 424.023 980.38C424.356 989.564 424.661 998.871 424.947 1008.06C425.105 1013.11 425.262 1018.1 425.401 1023.16L425.484 1025.99C425.619 1030.76 425.749 1035.5 425.872 1040.23C426.039 1046.39 426.196 1052.99 426.335 1059.34C426.455 1064.14 426.557 1069.01 426.658 1073.88C426.658 1074.56 426.658 1075.3 426.704 1076.04C426.769 1079.24 426.834 1082.51 426.889 1085.78C426.945 1089.04 426.991 1091.2 427.037 1093.85C427.204 1103.65 427.352 1113.39 427.472 1123.19L427.555 1129.85L427.666 1141C427.666 1145.13 427.74 1149.26 427.768 1153.33C427.768 1156.54 427.814 1159.49 427.833 1162.88C427.833 1167.57 427.879 1172.32 427.888 1177C427.897 1181.68 427.999 1189.14 427.999 1194.63Z" fill="#EDF7FA"/>
</svg>
